# xmcd CD database file
#
# Track frame offsets:
#	150
#	32331
#	70432
#	97200
#	131029
#	164594
#
# Disc length: 2744 seconds
#
# Revision: 1
# Processed by: cddbd v1.5.2PL0 Copyright (c) Steve Scherf et al.
# Submitted via: CDex 1.70beta2
#
DISCID=540ab606
DTITLE=Reg Schwager Trio - At George's (2/4)
DYEAR=1986
DGENRE=Jazz
TTITLE0=Where Or When
TTITLE1=Rhythmaning
TTITLE2=Here's That Rainy Day
TTITLE3=Nardis
TTITLE4=Sadik
TTITLE5=We Kiss In A Shadow
EXTD=YEAR: 1986
EXTT0=
EXTT1=
EXTT2=
EXTT3=
EXTT4=
EXTT5=
PLAYORDER=
